<svg width="15" height="14" viewBox="0 0 15 14" fill="none" xmlns="http://www.w3.org/2000/svg">
<path d="M7.49992 13.4336C7.29325 13.4336 7.09325 13.4069 6.92659 13.3469C4.37992 12.4736 0.333252 9.37356 0.333252 4.79356C0.333252 2.46023 2.21992 0.566895 4.53992 0.566895C5.66659 0.566895 6.71992 1.00689 7.49992 1.79356C8.27992 1.00689 9.33325 0.566895 10.4599 0.566895C12.7799 0.566895 14.6666 2.46689 14.6666 4.79356C14.6666 9.38023 10.6199 12.4736 8.07325 13.3469C7.90659 13.4069 7.70659 13.4336 7.49992 13.4336ZM4.53992 1.56689C2.77325 1.56689 1.33325 3.01356 1.33325 4.79356C1.33325 9.34689 5.71325 11.8802 7.25325 12.4069C7.37325 12.4469 7.63325 12.4469 7.75325 12.4069C9.28659 11.8802 13.6733 9.35356 13.6733 4.79356C13.6733 3.01356 12.2333 1.56689 10.4666 1.56689C9.45325 1.56689 8.51325 2.04023 7.90659 2.86023C7.71992 3.11356 7.29325 3.11356 7.10659 2.86023C6.48659 2.03356 5.55325 1.56689 4.53992 1.56689Z" fill="#292D32"/>
</svg>
