<svg width="24" height="24" viewBox="0 0 24 24" fill="none" xmlns="http://www.w3.org/2000/svg">
<path d="M11.0802 7.89712C12.1568 5.96571 12.6952 5 13.5 5C14.3048 5 14.8432 5.96571 15.9198 7.89712L16.1984 8.3968C16.5043 8.94564 16.6573 9.22007 16.8958 9.40114C17.1343 9.5822 17.4314 9.64942 18.0255 9.78384L18.5664 9.90622C20.6571 10.3793 21.7025 10.6158 21.9512 11.4156C22.1999 12.2153 21.4872 13.0487 20.0619 14.7154L19.6932 15.1466C19.2881 15.6203 19.0856 15.8571 18.9945 16.1501C18.9034 16.443 18.934 16.759 18.9953 17.3909L19.051 17.9662C19.2665 20.19 19.3742 21.3019 18.7231 21.7962C18.072 22.2905 17.0932 21.8398 15.1357 20.9385L14.6292 20.7053C14.073 20.4492 13.7948 20.3211 13.5 20.3211C13.2052 20.3211 12.927 20.4492 12.3708 20.7053L11.8643 20.9385C9.90677 21.8398 8.928 22.2905 8.27688 21.7962C7.62575 21.3019 7.7335 20.19 7.94899 17.9662L8.00474 17.3909C8.06597 16.759 8.09659 16.443 8.00548 16.1501C7.91438 15.8571 7.71186 15.6203 7.30683 15.1466L6.93808 14.7154C5.51276 13.0487 4.8001 12.2153 5.04881 11.4156C5.29751 10.6158 6.34288 10.3793 8.43361 9.90622L8.9745 9.78384C9.56862 9.64942 9.86568 9.5822 10.1042 9.40114C10.3427 9.22007 10.4957 8.94565 10.8016 8.3968L11.0802 7.89712Z" stroke="#4E5556" stroke-width="1.5"/>
<path d="M4.98987 2C4.98987 2 5.2778 3.45771 5.90909 4.08475C6.54037 4.71179 8 4.98987 8 4.98987C8 4.98987 6.54229 5.2778 5.91525 5.90909C5.28821 6.54037 5.01013 8 5.01013 8C5.01013 8 4.7222 6.54229 4.09091 5.91525C3.45963 5.28821 2 5.01013 2 5.01013C2 5.01013 3.45771 4.7222 4.08475 4.09091C4.71179 3.45963 4.98987 2 4.98987 2Z" stroke="#4E5556" stroke-linejoin="round"/>
<path d="M18 5H20M19 6L19 4" stroke="#4E5556" stroke-width="1.5" stroke-linecap="round"/>
</svg>
